Coordinates
version=1
nRows=17
nColumns=38
inDegrees=no

Units are S.I. units (second, meters, Newtons, ...)
If the header above contains a line with 'inDegrees', this indicates whether rotational values are in degrees (yes) or radians (no).

endheader
time	pelvis_tilt	pelvis_list	pelvis_rotation	pelvis_tx	pelvis_ty	pelvis_tz	hip_flexion_r	hip_adduction_r	hip_rotation_r	knee_angle_r	ankle_angle_r	subtalar_angle_r	mtp_angle_r	hip_flexion_l	hip_adduction_l	hip_rotation_l	knee_angle_l	ankle_angle_l	subtalar_angle_l	mtp_angle_l	lumbar_extension	lumbar_bending	lumbar_rotation	arm_flex_r	arm_add_r	arm_rot_r	elbow_flex_r	pro_sup_r	wrist_flex_r	wrist_dev_r	arm_flex_l	arm_add_l	arm_rot_l	elbow_flex_l	pro_sup_l	wrist_flex_l	wrist_dev_l
3.25	-2.15519	1.49135	1.19191	0.875586	0.422648	0.929809	0.438645	-0.140072	-0.391287	0.377048	0.00760883	0	0	-0.147943	-0.17773	0.123419	0.42594	0.18281	0	0	0.0615982	0.0563357	0.0639704	0.22104	-0.270433	-0.125321	1.21973	1.5708	0	0	-0.314325	-0.140463	-0.126061	0.504341	1.25875	0	0
3.26	-2.12411	1.48677	1.14652	0.873246	0.412997	0.930505	0.43928	-0.123557	-0.381934	0.379459	0.00443684	0	0	-0.134314	-0.185815	0.110421	0.460793	0.164903	0	0	0.066295	0.0616977	0.0762138	0.204996	-0.266818	-0.134827	1.23303	1.5708	0	0	-0.32057	-0.139216	-0.133384	0.499755	1.2598	0	0
3.27	-2.10336	1.48398	1.1116	0.871118	0.403365	0.931424	0.438016	-0.108153	-0.370053	0.381968	0.00102967	0	0	-0.11992	-0.191605	0.0994452	0.498963	0.143141	0	0	0.0695531	0.0655756	0.0865398	0.190852	-0.262552	-0.141917	1.24377	1.5708	0	0	-0.328142	-0.136991	-0.144214	0.495528	1.25968	0	0
3.28	-2.09202	1.48351	1.08769	0.86932	0.393751	0.932449	0.433261	-0.0950643	-0.35907	0.38284	-0.00472299	0	0	-0.104974	-0.194544	0.092728	0.540207	0.118246	0	0	0.0713327	0.0672427	0.0933759	0.178586	-0.257593	-0.145881	1.2528	1.5708	0	0	-0.337506	-0.134189	-0.156603	0.493508	1.25757	0	0
3.29	-2.08216	1.48499	1.07033	0.867873	0.384398	0.933503	0.423869	-0.0846101	-0.352139	0.38017	-0.0126451	0	0	-0.0872432	-0.195865	0.093658	0.586361	0.0916624	0	0	0.0683083	0.0686405	0.0834915	0.177491	-0.2503	-0.135317	1.25865	1.5708	0	0	-0.327761	-0.127242	-0.459498	0.458083	0.415465	0	0
3.3	-1.8569	1.49746	0.893979	0.87402	0.381192	0.936252	0.379065	-0.0995572	-0.419217	0.370386	-0.017145	0	0	-0.061947	-0.193894	0.169523	0.654695	0.0695532	0	0	0.046335	0.0828599	0.0294031	0.174532	-0.263263	-0.131826	1.27399	1.5708	0	0	-0.325468	-0.112139	-0.461759	0.452929	0.418932	0	0
3.31	-2.13897	1.50051	1.12381	0.864516	0.366714	0.937729	0.389348	-0.0757003	-0.340316	0.363642	-0.0247629	0	0	-0.043724	-0.195761	0.0747024	0.688498	0.0254385	0	0	0.0550334	0.050007	0.0721175	0.164887	-0.229551	-0.140326	1.26157	1.5708	0	0	-0.340708	-0.129379	-0.466764	0.459274	0.434758	0	0
3.32	-1.97585	1.48775	0.953128	0.864145	0.358594	0.93591	0.386358	-0.0482011	-0.332372	0.362384	-0.0188284	0	0	-0.0100088	-0.198807	0.115694	0.758956	0.0162068	0	0	0.062179	0.0736082	0.0701775	0.153815	-0.238819	-0.135092	1.2853	1.5708	0	0	-0.352564	-0.119032	-0.473044	0.461733	0.422522	0	0
3.33	-1.89085	1.48654	0.86831	0.863297	0.350778	0.936513	0.371197	-0.0341346	-0.333257	0.355631	-0.0127949	0	0	0.0205571	-0.200269	0.130735	0.823138	-0.00710603	0	0	0.0612272	0.0788301	0.0726698	0.136947	-0.23932	-0.147613	1.2999	1.5708	0	0	-0.378536	-0.120562	-0.178118	0.502314	1.24366	0	0
3.34	-1.80705	1.48991	0.7844	0.861446	0.342551	0.938349	0.349525	-0.0212921	-0.333085	0.342913	-0.0102773	0	0	0.0449443	-0.197515	0.145086	0.878786	-0.0375176	0	0	0.0525549	0.0787305	0.0663697	0.130665	-0.231438	-0.151828	1.3041	1.5708	0	0	-0.379112	-0.122107	-0.171858	0.49659	1.23686	0	0
3.35	-1.72482	1.48017	0.702269	0.861653	0.335833	0.937737	0.340287	-0.00465062	-0.339759	0.336815	-0.00396473	0	0	0.0815182	-0.201175	0.160274	0.94389	-0.050062	0	0	0.0546177	0.095573	0.0608754	0.118251	-0.237915	-0.155587	1.32576	1.5708	0	0	-0.379633	-0.114922	-0.161886	0.48772	1.23302	0	0
3.36	-1.65805	1.47647	0.631793	0.860736	0.328557	0.938465	0.325305	0.0101514	-0.34123	0.326725	0.000517139	0	0	0.109158	-0.198581	0.174952	1.00124	-0.0525548	0	0	0.0517876	0.103589	0.0589953	0.109225	-0.237703	-0.159908	1.33555	1.5708	0	0	-0.379166	-0.111434	-0.153062	0.480764	1.22571	0	0
3.37	-1.58941	1.47217	0.557795	0.859861	0.3213	0.939365	0.307701	0.0264171	-0.341212	0.31242	0.00411619	0	0	0.134941	-0.195038	0.188909	1.05823	-0.0371023	0	0	0.048014	0.112608	0.0597017	0.0988118	-0.238005	-0.165995	1.34697	1.5708	0	0	-0.371653	-0.102637	-0.176471	0.459264	1.30276	0	0
3.38	-1.53855	1.47009	0.50038	0.858852	0.314284	0.940426	0.290615	0.039022	-0.341224	0.299706	0.00888317	0	0	0.159027	-0.187977	0.199851	1.11156	-0.0128534	0	0	0.0438482	0.118113	0.0621033	0.0899283	-0.237668	-0.171277	1.35429	1.5708	0	0	-0.37136	-0.100392	-0.159692	0.458054	1.27537	0	0
3.39	-1.39774	1.48748	0.347046	0.856979	0.305855	0.944962	0.249173	0.0413659	-0.328526	0.27297	0.00682545	0	0	0.138061	-0.17177	0.191179	1.1163	0.0143244	0	0	0.0220135	0.103253	0.0747023	0.0814427	-0.224129	-0.187251	1.3489	1.5708	0	0	-0.3597	-0.101758	-0.16555	0.439533	1.31327	0	0
3.4	-1.42346	1.50009	0.365645	0.855343	0.299618	0.947675	0.233353	0.0360184	-0.320222	0.258556	0.00811317	0	0	0.170354	-0.155154	0.179667	1.16534	0.0270839	0	0	0.0171953	0.0870588	0.0803053	0.0743413	-0.213557	-0.199755	1.34355	1.5708	0	0	-0.35313	-0.103509	-0.157315	0.43487	1.31249	0	0
3.41	-1.3608	1.5065	0.289796	0.853761	0.292186	0.949593	0.21146	0.0391458	-0.312351	0.242512	0.0132678	0	0	0.171753	-0.161829	0.170264	1.1727	0.0701147	0	0	0.0107532	0.081221	0.0903838	0.0658376	-0.208988	-0.204377	1.34697	1.5708	0	0	-0.353976	-0.101421	-0.151386	0.439223	1.31034	0	0
